<?xml version="1.0" encoding="UTF-8" standalone="no"?>
<!-- Created with Inkscape (http://www.inkscape.org/) -->

<svg
   xmlns:dc="http://purl.org/dc/elements/1.1/"
   xmlns:cc="http://creativecommons.org/ns#"
   xmlns:rdf="http://www.w3.org/1999/02/22-rdf-syntax-ns#"
   xmlns:svg="http://www.w3.org/2000/svg"
   xmlns="http://www.w3.org/2000/svg"
   xmlns:sodipodi="http://sodipodi.sourceforge.net/DTD/sodipodi-0.dtd"
   xmlns:inkscape="http://www.inkscape.org/namespaces/inkscape"
   width="58.591812mm"
   height="11.008633mm"
   viewBox="0 0 58.591812 11.008633"
   version="1.1"
   id="svg8"
   inkscape:version="0.92.3 (2405546, 2018-03-11)"
   sodipodi:docname="logo.svg">
  <defs
     id="defs2" />
  <sodipodi:namedview
     id="base"
     pagecolor="#ffffff"
     bordercolor="#666666"
     borderopacity="1.0"
     inkscape:pageopacity="0.0"
     inkscape:pageshadow="2"
     inkscape:zoom="2.8"
     inkscape:cx="27.568"
     inkscape:cy="-80.217868"
     inkscape:document-units="mm"
     inkscape:current-layer="layer1"
     showgrid="false"
     showguides="true"
     inkscape:guide-bbox="true"
     inkscape:window-width="1920"
     inkscape:window-height="1017"
     inkscape:window-x="-8"
     inkscape:window-y="-8"
     inkscape:window-maximized="1"
     fit-margin-top="0"
     fit-margin-left="0"
     fit-margin-right="0"
     fit-margin-bottom="0">
    <sodipodi:guide
       position="2.476779,0.0060866932"
       orientation="0,1"
       id="guide4542"
       inkscape:locked="false" />
  </sodipodi:namedview>
  <metadata
     id="metadata5">
    <rdf:RDF>
      <cc:Work
         rdf:about="">
        <dc:format>image/svg+xml</dc:format>
        <dc:type
           rdf:resource="http://purl.org/dc/dcmitype/StillImage" />
        <dc:title></dc:title>
      </cc:Work>
    </rdf:RDF>
  </metadata>
  <g
     inkscape:label="Vrstva 1"
     inkscape:groupmode="layer"
     id="layer1"
     transform="translate(-38.710814,-43.974575)">
    <g
       aria-label="OmniMoor"
       style="font-style:normal;font-variant:normal;font-weight:bold;font-stretch:normal;font-size:10.58333302px;line-height:1.25;font-family:'Nirmala UI';-inkscape-font-specification:'Nirmala UI Bold';letter-spacing:0px;word-spacing:0px;fill:#000000;fill-opacity:1;stroke:none;stroke-width:0.26458332"
       id="text3715">
      <path
         style="font-style:normal;font-variant:normal;font-weight:bold;font-stretch:normal;font-family:'Nirmala UI';-inkscape-font-specification:'Nirmala UI Bold';stroke-width:0.99999994"
         d="m 184.18359,178.8457 c -4.23177,0 -7.63021,1.36719 -10.19531,4.10157 -2.5651,2.73437 -3.84765,6.3151 -3.84766,10.74218 0,4.19271 1.26303,7.59766 3.78907,10.21485 0.3458,0.3565 0.70841,0.68253 1.08203,0.99023 -0.32371,0.85213 -1.02244,1.34371 -1.76563,1.66602 -1.01975,0.44225 -2.05351,0.48604 -2.06054,0.48633 h -0.008 l 0.008,0.75976 h 0.0156 12.44141 c 0.0312,1.6e-4 0.0605,0.004 0.0918,0.004 0.0314,0 0.0605,-0.004 0.0918,-0.004 h 12.00781 0.008 l 0.008,-0.75976 h -0.008 c -0.007,-1.6e-4 -0.95969,-0.0193 -1.9043,-0.43555 -0.67125,-0.29576 -1.30787,-0.75575 -1.63086,-1.56445 0.49676,-0.39043 0.97923,-0.80563 1.42774,-1.2793 2.5651,-2.69531 3.84765,-6.24349 3.84765,-10.64453 0,-4.28386 -1.23698,-7.73438 -3.71094,-10.35157 -2.46093,-2.61718 -5.6901,-3.92578 -9.6875,-3.92578 z m -0.17578,5.42969 c 2.14844,0 3.84115,0.80729 5.07813,2.42188 1.23698,1.61458 1.85547,3.87369 1.85547,6.77734 0,2.78646 -0.63802,4.96745 -1.91407,6.54297 -1.27604,1.5625 -3.0013,2.34375 -5.17578,2.34375 -2.10937,0 -3.8151,-0.80729 -5.11718,-2.42188 -1.30209,-1.61458 -1.95313,-3.80859 -1.95313,-6.58203 0,-2.73437 0.65104,-4.92838 1.95313,-6.58203 1.30208,-1.66667 3.05989,-2.5 5.27343,-2.5 z"
         transform="scale(0.26458333)"
         id="path4584"
         inkscape:connector-curvature="0" />
      <path
         d="m 61.744076,54.853809 h -1.627807 v -3.017903 q 0,-1.152385 -0.847494,-1.152385 -0.403076,0 -0.656291,0.346232 -0.253214,0.346233 -0.253214,0.862997 v 2.961059 H 56.726295 V 51.8049 q 0,-1.121379 -0.831991,-1.121379 -0.418579,0 -0.671793,0.33073 -0.248047,0.330729 -0.248047,0.899169 v 2.940389 h -1.632976 v -5.291666 h 1.632976 v 0.826823 h 0.02067 q 0.253215,-0.423747 0.707967,-0.687297 0.459921,-0.268717 1.002523,-0.268717 1.121379,0 1.53479,0.98702 0.604614,-0.98702 1.777669,-0.98702 1.725993,0 1.725993,2.129069 z"
         style="font-style:normal;font-variant:normal;font-weight:bold;font-stretch:normal;font-family:'Nirmala UI';-inkscape-font-specification:'Nirmala UI Bold';stroke-width:0.26458332"
         id="path4586"
         inkscape:connector-curvature="0" />
      <path
         d="M 68.146786,54.853809 H 66.518978 V 51.91342 q 0,-1.229899 -0.878499,-1.229899 -0.423747,0 -0.697632,0.325562 -0.273885,0.325561 -0.273885,0.826823 v 3.017903 h -1.632975 v -5.291666 h 1.632975 v 0.837158 h 0.02067 q 0.583944,-0.966349 1.700155,-0.966349 1.756999,0 1.756999,2.180745 z"
         style="font-style:normal;font-variant:normal;font-weight:bold;font-stretch:normal;font-family:'Nirmala UI';-inkscape-font-specification:'Nirmala UI Bold';stroke-width:0.26458332"
         id="path4588"
         inkscape:connector-curvature="0" />
      <path
         d="m 70.270686,48.724985 q -0.413411,0 -0.676961,-0.24288 -0.26355,-0.248046 -0.26355,-0.604614 0,-0.366902 0.26355,-0.599446 0.26355,-0.232544 0.676961,-0.232544 0.41858,0 0.676962,0.232544 0.263549,0.232544 0.263549,0.599446 0,0.372071 -0.263549,0.609782 -0.258382,0.237712 -0.676962,0.237712 z m 0.806153,6.128824 h -1.632975 v -5.291666 h 1.632975 z"
         style="font-style:normal;font-variant:normal;font-weight:bold;font-stretch:normal;font-family:'Nirmala UI';-inkscape-font-specification:'Nirmala UI Bold';stroke-width:0.26458332"
         id="path4590"
         inkscape:connector-curvature="0" />
      <path
         d="m 80.301082,54.853809 h -0.862996 v -4.971272 q 0,-0.589112 0.07235,-1.441773 h -0.02067 q -0.124023,0.501262 -0.222208,0.718303 l -2.532145,5.694742 h -0.423747 l -2.526978,-5.653401 q -0.10852,-0.248047 -0.222208,-0.759644 h -0.02067 q 0.04134,0.444418 0.04134,1.452108 v 4.960937 h -0.837158 v -7.4104 h 1.147217 l 2.273763,5.167643 q 0.26355,0.594279 0.341064,0.888835 h 0.03101 q 0.222209,-0.609782 0.356568,-0.909505 l 2.320271,-5.146973 h 1.085205 z"
         style="font-style:normal;font-variant:normal;font-weight:normal;font-stretch:normal;font-family:'Nirmala UI';-inkscape-font-specification:'Nirmala UI'"
         id="path4592"
         inkscape:connector-curvature="0" />
      <path
         d="m 84.352512,54.977833 q -1.173055,0 -1.875854,-0.738973 -0.697632,-0.744141 -0.697632,-1.968872 0,-1.333252 0.728638,-2.08256 0.728637,-0.749309 1.968872,-0.749309 1.18339,0 1.844848,0.728638 0.666626,0.728638 0.666626,2.020549 0,1.266072 -0.718302,2.030883 -0.713135,0.759644 -1.917196,0.759644 z m 0.06201,-4.826579 q -0.816488,0 -1.291911,0.558106 -0.475423,0.552937 -0.475423,1.529622 0,0.940511 0.480591,1.483114 0.480591,0.542602 1.286743,0.542602 0.821655,0 1.260905,-0.532267 0.444417,-0.532267 0.444417,-1.51412 0,-0.992187 -0.444417,-1.529622 -0.43925,-0.537435 -1.260905,-0.537435 z"
         style="font-style:normal;font-variant:normal;font-weight:normal;font-stretch:normal;font-family:'Nirmala UI';-inkscape-font-specification:'Nirmala UI'"
         id="path4594"
         inkscape:connector-curvature="0" />
      <path
         d="m 90.553684,54.977833 q -1.173055,0 -1.875854,-0.738973 -0.697632,-0.744141 -0.697632,-1.968872 0,-1.333252 0.728638,-2.08256 0.728637,-0.749309 1.968872,-0.749309 1.18339,0 1.844848,0.728638 0.666626,0.728638 0.666626,2.020549 0,1.266072 -0.718302,2.030883 -0.713135,0.759644 -1.917196,0.759644 z m 0.06201,-4.826579 q -0.816488,0 -1.291911,0.558106 -0.475423,0.552937 -0.475423,1.529622 0,0.940511 0.480591,1.483114 0.480591,0.542602 1.286743,0.542602 0.821655,0 1.260905,-0.532267 0.444417,-0.532267 0.444417,-1.51412 0,-0.992187 -0.444417,-1.529622 -0.43925,-0.537435 -1.260905,-0.537435 z"
         style="font-style:normal;font-variant:normal;font-weight:normal;font-stretch:normal;font-family:'Nirmala UI';-inkscape-font-specification:'Nirmala UI'"
         id="path4596"
         inkscape:connector-curvature="0" />
      <path
         d="m 97.302626,50.419972 q -0.222208,-0.170533 -0.640788,-0.170533 -0.542602,0 -0.909505,0.511597 -0.361735,0.511597 -0.361735,1.395264 v 2.697509 h -0.847493 v -5.291666 h 0.847493 v 1.090373 h 0.02067 q 0.180867,-0.558106 0.552938,-0.868164 0.37207,-0.315227 0.83199,-0.315227 0.330729,0 0.506429,0.07235 z"
         style="font-style:normal;font-variant:normal;font-weight:normal;font-stretch:normal;font-family:'Nirmala UI';-inkscape-font-specification:'Nirmala UI'"
         id="path4598"
         inkscape:connector-curvature="0" />
    </g>
    <path
       style="color:#000000;font-style:normal;font-variant:normal;font-weight:normal;font-stretch:normal;font-size:medium;line-height:normal;font-family:sans-serif;font-variant-ligatures:normal;font-variant-position:normal;font-variant-caps:normal;font-variant-numeric:normal;font-variant-alternates:normal;font-feature-settings:normal;text-indent:0;text-align:start;text-decoration:none;text-decoration-line:none;text-decoration-style:solid;text-decoration-color:#000000;letter-spacing:normal;word-spacing:normal;text-transform:none;writing-mode:lr-tb;direction:ltr;text-orientation:mixed;dominant-baseline:auto;baseline-shift:baseline;text-anchor:start;white-space:normal;shape-padding:0;clip-rule:nonzero;display:inline;overflow:visible;visibility:visible;opacity:1;isolation:auto;mix-blend-mode:normal;color-interpolation:sRGB;color-interpolation-filters:linearRGB;solid-color:#000000;solid-opacity:1;vector-effect:none;fill:#000000;fill-opacity:1;fill-rule:nonzero;stroke:none;stroke-width:3.44944358;stroke-linecap:butt;stroke-linejoin:miter;stroke-miterlimit:4;stroke-dasharray:none;stroke-dashoffset:0;stroke-opacity:1;color-rendering:auto;image-rendering:auto;shape-rendering:auto;text-rendering:auto;enable-background:accumulate"
       d="m 166.98633,166.20312 -14.03906,30.2129 v -3.49414 h -3.1836 v -15.40235 h -3.45508 v 30.26563 h 3.45508 v -1.60547 h 3.1836 v -4.68555 l 15.25,-32.83203 27.78515,6.17383 v 1.07617 h 3.75 v -3.75 h -3.75 v 0.48242 z"
       transform="scale(0.26458333)"
       id="path4530"
       inkscape:connector-curvature="0" />
  </g>
</svg>
